<svg width="140" height="140" viewBox="0 0 140 140" fill="none" xmlns="http://www.w3.org/2000/svg">
<rect width="140" height="140" fill="#EE2A24"/>
<path d="M123.564 25.5728C122.69 23.5575 121.343 22.2979 119.53 21.8017C118.347 21.4811 116.415 21.2673 113.732 21.1566C112.297 21.0994 110.648 21.0688 108.782 21.0688H100.759L92.5293 73.0359H104.175L107.839 49.9093C108.442 49.9093 108.858 49.9589 109.152 50.062C109.618 50.2223 109.789 50.5048 109.95 50.9055C110.213 51.5735 110.179 52.9857 109.74 55.7683L107.003 73.0359H117.832L120.003 59.3294C120.667 55.1347 120.984 52.5697 120.938 51.6384C120.9 50.7071 120.576 49.6879 119.988 48.581C119.393 47.4627 118.019 46.5772 115.881 45.9092C118.404 45.6344 120.202 44.8023 121.259 43.413C122.324 42.0198 123.179 39.306 123.816 35.2601C124.519 30.821 124.431 27.5996 123.561 25.5728H123.564ZM113.041 33.9776L112.591 36.825C112.228 39.1151 111.805 40.1648 111.224 40.5808C110.976 40.7602 110.805 40.8976 110.591 41.0007C110.305 41.1381 109.946 41.203 109.221 41.203L110.904 30.5653C111.618 30.5653 111.969 30.6454 112.205 30.7981C112.404 30.9279 112.526 31.1073 112.713 31.3401C113.125 31.8554 113.305 32.3134 113.041 33.97V33.9776Z" fill="white"/>
<path d="M85.0099 21.0688H76.5555L65.9751 60.3562L62.5627 73.0359H74.6051L76.7311 63.8448H80.1854L79.2884 73.0359H91.2047L92.9491 21.0688H85.0099ZM81.2655 54.0278H78.3113L82.1701 38.9892L82.7236 36.8403L81.2655 54.0278Z" fill="white"/>
<path d="M41.5126 21.6722C39.6271 20.5423 37.2072 19.9736 34.2567 19.9736C31.5658 19.9736 29.1841 20.4965 27.1191 21.5309C25.0504 22.5653 23.4473 24.0119 22.3098 25.8478C21.1686 27.6914 20.2792 30.6037 19.6495 34.5809C19.2105 37.3405 19.1533 39.6078 19.4739 41.3864C19.7945 43.1613 20.1762 44.5545 20.9281 45.5621C21.6839 46.5736 23.2908 48.192 25.7641 50.4172C28.2222 52.6272 29.6039 54.1807 30.165 55.1273C30.7185 56.0624 30.7452 58.0739 30.2604 61.1312C30.039 62.5206 29.7833 62.9557 29.3062 63.658C28.8253 64.368 28.5161 64.7191 27.7642 64.7191C27.0122 64.7191 26.9855 64.4367 26.7756 63.887C26.5657 63.3336 26.5237 62.6924 26.8329 60.7457L27.9092 53.9631H16.9242L16.3135 57.822C15.6951 61.7229 15.5501 64.7268 15.8745 66.849C16.199 68.9635 17.3326 70.704 19.2639 72.0781C21.1877 73.4446 23.6686 74.1354 26.7031 74.1354C29.4703 74.1354 31.9818 73.5362 34.2529 72.3491C36.5163 71.1659 38.1576 69.6849 39.1614 67.933C40.1653 66.181 40.963 63.4519 41.5508 59.7495C42.3562 54.654 42.4669 50.8065 41.5165 48.5164C40.5661 46.2263 37.8561 43.3025 33.3788 39.7299C31.8177 38.4856 31.2032 37.5772 30.9589 36.7069C30.7108 35.8252 30.7185 34.516 30.9933 32.7831C31.207 31.4358 31.4475 31.0426 31.8979 30.3861C32.3559 29.722 32.459 29.3899 33.1384 29.3899C33.772 29.3899 34.0315 29.6342 34.2186 30.1228C34.4056 30.6151 34.459 31.1495 34.1766 32.9473L33.4933 37.2565H44.1692L44.5662 34.745C45.2189 30.6151 45.3524 27.6876 44.9555 25.9662C44.5509 24.2371 43.4058 22.8096 41.5088 21.6722H41.5126Z" fill="white"/>
<path d="M70.4561 32.0806H71.8607L73.605 21.0688H72.2004H48.841L47.0967 32.0806H53.803L47.3181 73.0359H58.6466L65.1353 32.0806H70.4561Z" fill="white"/>
<path d="M53.9213 93.1856L54.616 88.8038H51.5319L52.2228 84.4411H55.5206L56.2496 79.8379H48.0089L44.3638 102.85H52.9327L53.6617 98.2468H50.0357L50.8372 93.1856H53.9213Z" fill="white"/>
<path d="M38.6538 96.5253C38.4553 97.7848 38.2683 98.5902 38.1004 98.9261C37.9362 99.2696 37.669 99.4414 37.2988 99.4414C36.9286 99.4414 36.6957 99.2734 36.6385 98.9261C36.585 98.5902 36.6385 97.8612 36.8179 96.739L38.5126 86.0479C38.6958 84.8837 38.8752 84.1242 39.0393 83.773C39.2073 83.418 39.4935 83.2463 39.8981 83.2463C40.2569 83.2463 40.4668 83.3913 40.5241 83.6814C40.5852 83.9715 40.5241 84.7005 40.3409 85.8647L39.7073 89.8724H44.6463L44.9937 87.6853C45.3334 85.5326 45.4403 83.9486 45.3028 82.9295C45.1616 81.9142 44.6807 81.063 43.841 80.376C43.0013 79.6966 41.8562 79.353 40.3981 79.353C39.3256 79.353 38.3408 79.5782 37.4477 80.0134C36.5507 80.4523 35.8102 81.063 35.2224 81.8264C34.6346 82.5936 34.23 83.3913 34.0048 84.2196C33.7796 85.0517 33.5353 86.296 33.272 87.9525L32.2071 94.6741C31.8483 96.9298 31.7376 98.6169 31.8635 99.7467C31.9895 100.865 32.4742 101.747 33.3101 102.384C34.146 103.018 35.2873 103.338 36.7415 103.338C38.1958 103.338 39.3637 102.961 40.4363 102.212C41.5012 101.464 42.2608 100.59 42.6921 99.594C43.1234 98.5978 43.5318 96.9108 43.9097 94.5366L44.0509 93.6435H39.1118L38.6538 96.5253Z" fill="white"/>
<path d="M66.7997 79.8379L63.9714 90.5863L64.2157 84.7273C64.3073 82.8494 64.3607 81.2196 64.395 79.8379H57.9979L54.3528 102.85H58.6735L61.0782 87.6702L60.4904 102.85H63.5553L67.7425 87.3152L65.2806 102.85H69.6013L73.2464 79.8379H66.7997Z" fill="white"/>
<path d="M90.4795 90.2008L89.3497 79.8379H85.2198L81.5747 102.85H85.7046L87.3611 92.3879L88.2772 102.85H92.6055L96.2507 79.8379H92.1208L90.4795 90.2008Z" fill="white"/>
<path d="M81.1434 93.1856L81.8381 88.8038H78.7503L79.4411 84.4411H82.7427L83.4718 79.8379H75.2311L71.5859 102.85H80.1511L80.8801 98.2468H77.254L78.0556 93.1856H81.1434Z" fill="white"/>
<path d="M97.3882 79.8379L96.6592 84.4411H99.5829L96.6668 102.85H101.61L104.526 84.4411H107.457L108.186 79.8379H97.3882Z" fill="white"/>
<path d="M109.831 112.613C109.755 112.999 109.679 113.377 109.602 113.762C109.209 113.133 108.934 112.526 107.934 112.438C107.885 112.43 107.831 112.43 107.774 112.426C106.644 112.392 105.018 113.159 104.667 114.968C104.316 116.778 105.087 117.633 106.316 117.747C106.999 117.812 107.507 117.686 107.93 117.465C108.274 117.285 108.568 117.049 108.85 116.804C108.77 117.251 108.69 117.698 108.617 118.144C108.442 118.705 108.201 118.919 107.93 119.03C107.774 119.095 107.61 119.121 107.442 119.167C107.007 119.289 106.541 119.11 106.396 118.747H104.281C104.636 119.858 105.751 120.095 107.495 119.995C107.644 119.988 107.789 119.976 107.93 119.961C109.427 119.804 110.419 119.259 110.74 116.969C111.015 115.51 111.282 114.056 111.553 112.602H109.827L109.831 112.613ZM109.186 115.19C109.079 115.739 108.686 116.465 107.934 116.579C107.839 116.594 107.728 116.598 107.617 116.587C106.659 116.514 106.53 115.614 106.732 114.926C106.911 114.308 107.205 113.804 107.934 113.701C108.018 113.69 108.106 113.686 108.194 113.686C109.114 113.671 109.312 114.571 109.186 115.194V115.19Z" fill="white"/>
<path d="M95.892 110.224H93.8652L93.6248 111.468H95.6553L95.892 110.224Z" fill="white"/>
<path d="M93.4072 112.629L92.3613 118.072H94.3881L95.4301 112.629H93.4072Z" fill="white"/>
<path d="M83.4679 110.793H85.4718L85.1397 112.617H86.323L86.1626 113.534L84.9527 113.541C84.8076 114.316 84.6626 115.091 84.5176 115.862C84.3343 116.648 84.7504 116.885 85.51 116.816C85.4374 117.236 85.3649 117.652 85.2848 118.072H83.5252C82.5213 118.137 82.1244 117.682 82.3305 116.713L82.8839 113.537H82.0137L82.174 112.617L83.1168 112.602L83.4641 110.793H83.4679Z" fill="white"/>
<path d="M88.7964 110.793H90.7964L90.4644 112.617L91.6514 112.61L91.4911 113.534L90.285 113.541C90.1399 114.316 89.9911 115.091 89.8498 115.866C89.659 116.652 90.0827 116.889 90.8384 116.816C90.7659 117.24 90.6896 117.656 90.617 118.076H88.8536C87.846 118.137 87.449 117.686 87.6589 116.713L88.2086 113.537H87.3459L87.5063 112.617L88.449 112.602L88.8002 110.793H88.7964Z" fill="white"/>
<path d="M97.2623 112.621C96.9111 114.434 96.5676 116.247 96.2126 118.056H98.2623C98.4608 117.018 98.6631 115.984 98.8578 114.946C99.1097 114.14 99.686 113.8 100.266 113.854C100.839 113.911 101.343 114.11 101.144 115.159C100.961 116.125 100.774 117.091 100.591 118.056H102.629C102.854 116.846 103.079 115.629 103.304 114.411C103.572 112.98 102.659 112.522 101.808 112.449C100.957 112.373 100.35 112.636 99.896 112.995C99.4379 113.346 99.1975 113.663 98.8463 113.995C98.9265 113.533 99.0104 113.075 99.0944 112.621H97.2585H97.2623Z" fill="white"/>
<path d="M77.403 115.659H80.6206C80.9641 112.976 79.2618 112.518 77.7388 112.442C77.632 112.434 77.5213 112.434 77.403 112.442C75.9602 112.522 74.3456 113.552 73.9716 115.007C73.5746 116.579 73.9639 117.969 76.1472 118.19C76.609 118.24 77.0289 118.232 77.403 118.19C78.7999 118.026 79.6358 117.324 80.1015 116.713H78.235C78.0213 116.953 77.735 117.121 77.403 117.19C77.2312 117.224 77.0518 117.236 76.8571 117.213C76.2846 117.156 75.6548 116.663 75.8418 115.659H77.403ZM77.403 113.453C77.4602 113.449 77.5137 113.446 77.5671 113.446C78.2618 113.446 78.9717 113.843 78.7503 114.896H76.0212C76.1167 113.93 76.7655 113.51 77.4068 113.453H77.403Z" fill="white"/>
<path d="M70.6547 112.373H72.9066C72.7692 110.385 71.0325 110.217 69.6165 110.24C68.2004 110.27 66.395 110.804 65.9828 112.324C65.5705 113.839 66.3912 114.377 67.5019 114.721C68.6088 115.06 70.4447 115.224 70.2043 116.091C69.96 116.95 68.9561 116.816 68.5554 116.805C68.1622 116.797 67.5706 116.667 67.3645 116.018H65.082C65.0133 117.923 67.0973 118.366 68.8569 118.259C70.6088 118.152 72.128 117.32 72.4829 115.984C72.8379 114.648 72.1852 113.961 70.5363 113.553C68.8836 113.144 68.2767 113.011 68.208 112.484C68.1355 111.961 68.6966 111.591 69.4485 111.659C70.1966 111.728 70.4943 111.839 70.6547 112.377V112.373Z" fill="white"/>
<path d="M58.7116 110.426L58.1124 113.548C57.7994 113.209 57.6849 112.602 56.681 112.476C56.6314 112.468 56.5818 112.464 56.5284 112.461C55.5207 112.396 53.9787 112.907 53.3336 114.938C52.6618 117.071 53.7611 118.064 54.723 118.182C55.6314 118.293 56.1085 118.125 56.5284 117.892C56.5513 117.877 56.578 117.865 56.6009 117.854C57.0513 117.571 57.3414 117.178 57.7154 116.839L57.4979 118.075H59.2689L60.7346 110.43H58.7116V110.426ZM57.8108 115.537C57.7116 116.136 57.265 116.808 56.5322 116.953C56.4062 116.98 56.265 116.991 56.12 116.98C55.1428 116.919 55.0665 115.946 55.326 115.106C55.5322 114.415 55.9711 113.938 56.5322 113.842C56.6467 113.823 56.7765 113.823 56.9062 113.835C57.6391 113.926 58.017 114.316 57.807 115.533L57.8108 115.537Z" fill="white"/>
<path d="M48.5356 110.426H46.5127L45.0508 118.072H47.0737L48.5356 110.426Z" fill="white"/>
<path d="M52.5779 110.224H50.5549L50.3145 111.468H52.3412L52.5779 110.224Z" fill="white"/>
<path d="M50.093 112.629L49.0471 118.072H51.0701L52.1159 112.629H50.093Z" fill="white"/>
<path d="M34.0124 112.374H36.2644C36.127 110.385 34.3903 110.217 32.9742 110.24C31.5543 110.271 29.7527 110.805 29.3405 112.324C28.9321 113.839 29.7489 114.378 30.8596 114.721C31.9742 115.061 33.8025 115.225 33.562 116.091C33.3215 116.95 32.3177 116.817 31.9207 116.805C31.5238 116.798 30.936 116.668 30.7222 116.019H28.4435C28.3748 117.923 30.4627 118.366 32.2185 118.259C33.9704 118.153 35.4895 117.32 35.8445 115.985C36.1957 114.649 35.5506 113.962 33.8941 113.553C32.2414 113.145 31.6307 113.011 31.5658 112.484C31.4932 111.962 32.0581 111.591 32.8063 111.66C33.5582 111.729 33.8559 111.839 34.0162 112.378L34.0124 112.374Z" fill="white"/>
<path d="M41.3904 112.468C41.1194 112.468 40.8522 112.48 40.5812 112.51C39.3178 112.648 38.0659 113.159 37.417 114.77C36.6307 116.72 37.6537 118.144 39.7682 118.217C40.043 118.224 40.3178 118.22 40.5812 118.194C42.0851 118.045 43.379 117.278 43.8943 115.51C44.5012 113.438 42.8981 112.457 41.3904 112.468ZM41.8675 115.503C41.6957 116.323 41.2263 116.953 40.5812 117.075C40.4629 117.098 40.3369 117.106 40.2072 117.091C39.3789 116.995 39.0163 116.236 39.3255 115.091C39.543 114.251 40.0392 113.778 40.5812 113.636C40.7759 113.583 40.982 113.579 41.1766 113.613C41.9095 113.747 42.0698 114.529 41.8675 115.503Z" fill="white"/>
</svg>
